<svg 
 xmlns="http://www.w3.org/2000/svg"
 xmlns:xlink="http://www.w3.org/1999/xlink"
 width="1190px" height="1064px">
<path fill-rule="evenodd"  fill="rgb(128, 183, 179)"
 d="M699.769,492.559 C704.263,498.439 703.837,506.875 698.460,512.252 C693.83,517.630 684.646,518.56 678.766,513.561 L188.636,1003.692 L185.807,1000.863 L675.937,510.733 C671.443,504.853 671.869,496.416 677.246,491.39 C682.624,485.662 691.60,485.236 696.940,489.730 L1186.363,0.307 L1189.192,3.136 L699.769,492.559 ZM800.460,283.252 C795.434,288.279 787.734,288.979 781.947,285.380 L3.636,1063.692 L0.807,1060.863 L778.853,282.817 C773.408,276.934 773.528,267.757 779.246,262.39 C784.964,256.321 794.141,256.201 800.25,261.646 L1001.363,60.307 L1004.192,63.136 L802.587,264.740 C806.186,270.527 805.486,278.226 800.460,283.252 Z"/>
</svg>